<svg width="25" height="27" viewBox="0 0 25 27" fill="none" xmlns="http://www.w3.org/2000/svg">
<path d="M23.5 4.90909H19V3.43636C19 2.52498 18.6313 1.65093 17.9749 1.00649C17.3185 0.362044 16.4283 0 15.5 0H9.5C8.57174 0 7.6815 0.362044 7.02513 1.00649C6.36875 1.65093 6 2.52498 6 3.43636V4.90909H1.5C1.10218 4.90909 0.720644 5.06425 0.43934 5.34044C0.158035 5.61663 0 5.99123 0 6.38182C0 6.77241 0.158035 7.147 0.43934 7.42319C0.720644 7.69938 1.10218 7.85455 1.5 7.85455H2V24.5455C2 25.1964 2.26339 25.8208 2.73223 26.2811C3.20107 26.7414 3.83696 27 4.5 27H20.5C21.163 27 21.7989 26.7414 22.2678 26.2811C22.7366 25.8208 23 25.1964 23 24.5455V7.85455H23.5C23.8978 7.85455 24.2794 7.69938 24.5607 7.42319C24.842 7.147 25 6.77241 25 6.38182C25 5.99123 24.842 5.61663 24.5607 5.34044C24.2794 5.06425 23.8978 4.90909 23.5 4.90909ZM9 3.43636C9 3.30617 9.05268 3.1813 9.14645 3.08924C9.24021 2.99718 9.36739 2.94545 9.5 2.94545H15.5C15.6326 2.94545 15.7598 2.99718 15.8536 3.08924C15.9473 3.1813 16 3.30617 16 3.43636V4.90909H9V3.43636ZM20 24.0545H5V7.85455H20V24.0545ZM11 11.7818V19.6364C11 20.027 10.842 20.4015 10.5607 20.6777C10.2794 20.9539 9.89782 21.1091 9.5 21.1091C9.10218 21.1091 8.72064 20.9539 8.43934 20.6777C8.15804 20.4015 8 20.027 8 19.6364V11.7818C8 11.3912 8.15804 11.0166 8.43934 10.7404C8.72064 10.4643 9.10218 10.3091 9.5 10.3091C9.89782 10.3091 10.2794 10.4643 10.5607 10.7404C10.842 11.0166 11 11.3912 11 11.7818ZM17 11.7818V19.6364C17 20.027 16.842 20.4015 16.5607 20.6777C16.2794 20.9539 15.8978 21.1091 15.5 21.1091C15.1022 21.1091 14.7206 20.9539 14.4393 20.6777C14.158 20.4015 14 20.027 14 19.6364V11.7818C14 11.3912 14.158 11.0166 14.4393 10.7404C14.7206 10.4643 15.1022 10.3091 15.5 10.3091C15.8978 10.3091 16.2794 10.4643 16.5607 10.7404C16.842 11.0166 17 11.3912 17 11.7818Z" fill="#696969"/>
</svg>
