<svg width="92" height="51" viewBox="0 0 92 51" fill="none" xmlns="http://www.w3.org/2000/svg">
<path d="M86.8889 17.482H76.1154L60.0884 1.49326C59.6145 1.01882 59.0511 0.642629 58.4308 0.386348C57.8105 0.130067 57.1455 -0.0012342 56.4741 8.74254e-06H15.4356C14.5942 -0.000236756 13.7658 0.206733 13.0238 0.602552C12.2819 0.998371 11.6493 1.5708 11.1824 2.26902L0.365085 18.4544C0.126071 18.8139 -0.000956843 19.2359 5.42684e-06 19.6672V37.1492C5.42684e-06 38.5015 0.538496 39.7984 1.49701 40.7546C2.45553 41.7109 3.75557 42.2481 5.11112 42.2481H11.9016C12.4043 44.718 13.7476 46.9386 15.7037 48.5337C17.6598 50.1287 20.1085 51 22.6349 51C25.1613 51 27.61 50.1287 29.5662 48.5337C31.5223 46.9386 32.8655 44.718 33.3683 42.2481H58.6318C59.1345 44.718 60.4777 46.9386 62.4338 48.5337C64.39 50.1287 66.8387 51 69.3651 51C71.8915 51 74.3402 50.1287 76.2963 48.5337C78.2524 46.9386 79.5957 44.718 80.0984 42.2481H86.8889C88.2444 42.2481 89.5445 41.7109 90.503 40.7546C91.4615 39.7984 92 38.5015 92 37.1492V22.5809C92 21.2286 91.4615 19.9316 90.503 18.9754C89.5445 18.0192 88.2444 17.482 86.8889 17.482ZM14.8295 4.69464C14.8961 4.59511 14.9862 4.51348 15.0919 4.45694C15.1976 4.40041 15.3156 4.37072 15.4356 4.3705H56.4741C56.6675 4.37131 56.8526 4.44859 56.9889 4.58538L69.92 17.482H6.28302L14.8295 4.69464ZM22.6349 46.6186C21.3352 46.6186 20.0647 46.2341 18.984 45.5137C17.9034 44.7934 17.0611 43.7695 16.5637 42.5716C16.0663 41.3737 15.9362 40.0555 16.1898 38.7839C16.4433 37.5122 17.0692 36.3441 17.9882 35.4272C18.9073 34.5104 20.0782 33.886 21.3529 33.6331C22.6276 33.3801 23.9489 33.5099 25.1497 34.0061C26.3505 34.5023 27.3768 35.3426 28.0989 36.4207C28.8209 37.4987 29.2064 38.7662 29.2064 40.0628C29.2064 41.8015 28.514 43.469 27.2816 44.6984C26.0492 45.9279 24.3778 46.6186 22.6349 46.6186ZM69.3651 46.6186C68.0654 46.6186 66.7949 46.2341 65.7142 45.5137C64.6335 44.7934 63.7912 43.7695 63.2939 42.5716C62.7965 41.3737 62.6664 40.0555 62.9199 38.7839C63.1735 37.5122 63.7994 36.3441 64.7184 35.4272C65.6374 34.5104 66.8083 33.886 68.0831 33.6331C69.3578 33.3801 70.6791 33.5099 71.8799 34.0061C73.0806 34.5023 74.1069 35.3426 74.829 36.4207C75.5511 37.4987 75.9365 38.7662 75.9365 40.0628C75.9365 41.8015 75.2442 43.469 74.0118 44.6984C72.7794 45.9279 71.1079 46.6186 69.3651 46.6186ZM87.619 37.1492C87.619 37.3424 87.5421 37.5276 87.4052 37.6642C87.2683 37.8008 87.0825 37.8776 86.8889 37.8776H80.0984C79.5957 35.4076 78.2524 33.187 76.2963 31.592C74.3402 29.997 71.8915 29.1256 69.3651 29.1256C66.8387 29.1256 64.39 29.997 62.4338 31.592C60.4777 33.187 59.1345 35.4076 58.6318 37.8776H33.3683C32.8655 35.4076 31.5223 33.187 29.5662 31.592C27.61 29.997 25.1613 29.1256 22.6349 29.1256C20.1085 29.1256 17.6598 29.997 15.7037 31.592C13.7476 33.187 12.4043 35.4076 11.9016 37.8776H5.11112C4.91747 37.8776 4.73175 37.8008 4.59482 37.6642C4.45789 37.5276 4.38096 37.3424 4.38096 37.1492V21.8525H86.8889C87.0825 21.8525 87.2683 21.9292 87.4052 22.0658C87.5421 22.2024 87.619 22.3877 87.619 22.5809V37.1492Z" fill="black"/>
</svg>
