<svg width="15" height="15" viewBox="0 0 15 15" fill="none" xmlns="http://www.w3.org/2000/svg">
<path d="M6.375 11.3333H7.79167V9.91667H6.375V11.3333ZM7.08333 0C6.15314 0 5.23205 0.183216 4.37266 0.539187C3.51327 0.895158 2.73241 1.41691 2.07466 2.07466C0.746278 3.40304 0 5.20472 0 7.08333C0 8.96195 0.746278 10.7636 2.07466 12.092C2.73241 12.7498 3.51327 13.2715 4.37266 13.6275C5.23205 13.9835 6.15314 14.1667 7.08333 14.1667C8.96195 14.1667 10.7636 13.4204 12.092 12.092C13.4204 10.7636 14.1667 8.96195 14.1667 7.08333C14.1667 6.15314 13.9835 5.23205 13.6275 4.37266C13.2715 3.51327 12.7498 2.73241 12.092 2.07466C11.4343 1.41691 10.6534 0.895158 9.79401 0.539187C8.93462 0.183216 8.01353 0 7.08333 0ZM7.08333 12.75C3.95958 12.75 1.41667 10.2071 1.41667 7.08333C1.41667 3.95958 3.95958 1.41667 7.08333 1.41667C10.2071 1.41667 12.75 3.95958 12.75 7.08333C12.75 10.2071 10.2071 12.75 7.08333 12.75ZM7.08333 2.83333C6.33189 2.83333 5.61122 3.13184 5.07986 3.6632C4.54851 4.19455 4.25 4.91522 4.25 5.66667H5.66667C5.66667 5.29094 5.81592 4.93061 6.0816 4.66493C6.34728 4.39926 6.70761 4.25 7.08333 4.25C7.45906 4.25 7.81939 4.39926 8.08507 4.66493C8.35074 4.93061 8.5 5.29094 8.5 5.66667C8.5 7.08333 6.375 6.90625 6.375 9.20833H7.79167C7.79167 7.61458 9.91667 7.4375 9.91667 5.66667C9.91667 4.91522 9.61816 4.19455 9.0868 3.6632C8.55545 3.13184 7.83478 2.83333 7.08333 2.83333Z" fill="#7B7B7B"/>
</svg>
