<svg width="88" height="58" viewBox="0 0 88 58" fill="none" xmlns="http://www.w3.org/2000/svg">
<path d="M61.875 3.35629e-05C61.0239 -0.00342938 60.1931 0.261162 59.4996 0.75659C58.806 1.25202 58.2845 1.95335 58.0085 2.76194H46.75V8.28574H58.4375L59.2982 11.0476H49.5C42.3225 11.0476 38.7145 14.9309 37.3835 16.5715H28.1022C24.9946 14.7629 21.4667 13.8101 17.875 13.8095C11.935 13.8095 7.0455 16.1406 7.0455 16.1406L9.4545 21.1452C9.4545 21.1452 13.3842 19.3334 17.875 19.3334C20.0998 19.3334 22.1925 20.0128 23.7188 20.6287L21.3125 25.6305C19.755 25.1362 18.1333 24.8756 16.5 24.8572C7.40025 24.8572 0 32.2894 0 41.4286C0 50.5677 7.40025 58 16.5 58C20.3966 58.0011 24.1673 56.614 27.1413 54.0854C30.1152 51.5567 32.0997 48.0505 32.7415 44.1905H42.2812C44.3657 44.1905 46.343 42.9725 47.267 41.0833H47.179L50.1875 34.9547C54.7635 32.8418 58.4925 29.174 61.1022 25.7216C61.82 24.7715 62.4333 23.8988 62.9915 23.0426L68.8353 42.2047L74.1647 40.6525L71.071 30.4666C71.2195 30.4555 71.3487 30.381 71.5 30.381C77.5693 30.381 82.5 35.3331 82.5 41.4286C82.5 47.5241 77.5693 52.4762 71.5 52.4762C69.3514 52.4731 67.2506 51.8386 65.4567 50.6509C63.6628 49.4632 62.2543 47.7742 61.4046 45.7921C60.555 43.8101 60.3015 41.6217 60.6753 39.4967C61.0492 37.3716 62.034 35.403 63.5085 33.8333L61.7897 28.0499C59.6901 29.5865 57.981 31.5988 56.8012 33.9234C55.6215 36.2481 55.0043 38.8194 55 41.4286C55 50.5677 62.4002 58 71.5 58C80.5997 58 88 50.5677 88 41.4286C88 32.2894 80.5997 24.8572 71.5 24.8572C70.7809 24.8648 70.0633 24.923 69.3522 25.0312L64.2812 8.28574H68.75V3.35629e-05H61.875ZM49.5 16.5715H60.5C59.3835 18.5904 58.1196 20.5235 56.7188 22.3549C54.1613 25.7216 50.6055 29.3011 47.179 30.555L46.0625 30.9002L45.6335 31.9359L42.2812 38.6667H16.5V44.1905H27.071C25.8445 48.9492 21.6122 52.4762 16.5 52.4762C10.4307 52.4762 5.5 47.5241 5.5 41.4286C5.5 35.3331 10.4307 30.381 16.5 30.381C20.5508 30.381 24.0405 32.6153 25.9545 35.9048H32.054C30.9341 32.7573 28.8981 30.0207 26.2103 28.0499L29.2188 22.0953H39.9603L40.821 20.8855C40.821 20.8855 43.4857 16.5715 49.5 16.5715Z" fill="black"/>
</svg>
