<svg width="91" height="60" viewBox="0 0 91 60" fill="none" xmlns="http://www.w3.org/2000/svg">
<path d="M90.8342 21.8667L85.4359 9.06419C85.0382 8.11184 84.3472 7.2953 83.453 6.72109C82.5588 6.14688 81.503 5.84167 80.4232 5.84527H66.322V2.19472C66.322 1.61264 66.0783 1.05441 65.6444 0.642818C65.2105 0.231228 64.6221 0 64.0085 0H5.3983C3.96659 0 2.59351 0.539534 1.58113 1.49991C0.568748 2.46029 0 3.76284 0 5.12101V46.0891C0 47.4473 0.568748 48.7498 1.58113 49.7102C2.59351 50.6706 3.96659 51.2101 5.3983 51.2101H12.5703C13.1013 53.6908 14.52 55.921 16.5861 57.523C18.6521 59.1249 21.2384 60 23.9068 60C26.5751 60 29.1614 59.1249 31.2275 57.523C33.2935 55.921 34.7122 53.6908 35.2432 51.2101H55.7568C56.2878 53.6908 57.7065 55.921 59.7725 57.523C61.8386 59.1249 64.4249 60 67.0932 60C69.7616 60 72.3479 59.1249 74.4139 57.523C76.4799 55.921 77.8987 53.6908 78.4297 51.2101H85.6017C87.0334 51.2101 88.4065 50.6706 89.4189 49.7102C90.4312 48.7498 91 47.4473 91 46.0891V22.6788C90.9995 22.4006 90.9432 22.125 90.8342 21.8667ZM66.322 10.242H80.427C80.5815 10.2419 80.7324 10.2857 80.8603 10.3679C80.9882 10.4501 81.0871 10.5668 81.1442 10.7029L85.2701 20.484H66.322V10.242ZM4.62712 5.12101C4.62712 4.92699 4.70837 4.74091 4.85299 4.60371C4.99762 4.46651 5.19377 4.38944 5.3983 4.38944H61.6949V29.2629H4.62712V5.12101ZM23.9068 55.5996C22.534 55.5996 21.1921 55.2134 20.0507 54.4899C18.9094 53.7664 18.0198 52.7381 17.4944 51.5351C16.9691 50.332 16.8317 49.0081 17.0995 47.7309C17.3673 46.4537 18.0283 45.2805 18.999 44.3597C19.9697 43.4389 21.2064 42.8118 22.5527 42.5578C23.8991 42.3037 25.2946 42.4341 26.5629 42.9324C27.8311 43.4308 28.9151 44.2747 29.6777 45.3574C30.4404 46.4402 30.8475 47.7132 30.8475 49.0154C30.8475 50.7616 30.1162 52.4363 28.8146 53.6711C27.5129 54.9059 25.7476 55.5996 23.9068 55.5996ZM55.7568 46.8207H35.2432C34.7122 44.34 33.2935 42.1098 31.2275 40.5078C29.1614 38.9059 26.5751 38.0308 23.9068 38.0308C21.2384 38.0308 18.6521 38.9059 16.5861 40.5078C14.52 42.1098 13.1013 44.34 12.5703 46.8207H5.3983C5.19377 46.8207 4.99762 46.7436 4.85299 46.6064C4.70837 46.4692 4.62712 46.2831 4.62712 46.0891V33.6524H61.6949V39.3147C60.1833 40.0736 58.8672 41.1399 57.8406 42.4375C56.8141 43.7351 56.1025 45.2318 55.7568 46.8207ZM67.0932 55.5996C65.7205 55.5996 64.3786 55.2134 63.2372 54.4899C62.0958 53.7664 61.2062 52.7381 60.6809 51.5351C60.1555 50.332 60.0181 49.0081 60.2859 47.7309C60.5537 46.4537 61.2147 45.2805 62.1854 44.3597C63.1561 43.4389 64.3928 42.8118 65.7392 42.5578C67.0855 42.3037 68.4811 42.4341 69.7493 42.9324C71.0175 43.4308 72.1015 44.2747 72.8642 45.3574C73.6268 46.4402 74.0339 47.7132 74.0339 49.0154C74.0339 50.7616 73.3027 52.4363 72.001 53.6711C70.6994 54.9059 68.934 55.5996 67.0932 55.5996ZM86.3729 46.0891C86.3729 46.2831 86.2916 46.4692 86.147 46.6064C86.0024 46.7436 85.8062 46.8207 85.6017 46.8207H78.4297C77.893 44.3436 76.4723 42.1179 74.4072 40.5187C72.3422 38.9195 69.759 38.0447 67.0932 38.0418C66.8349 38.0418 66.5765 38.0418 66.322 38.0674V24.8735H86.3729V46.0891Z" fill="black"/>
</svg>
