<svg width="108" height="93" viewBox="0 0 108 93" fill="none" xmlns="http://www.w3.org/2000/svg">
<path d="M0 93L54 0L108 93H0ZM54 78.3158C55.3909 78.3158 56.5576 77.8459 57.5002 76.9061C58.4427 75.9663 58.9124 74.8046 58.9091 73.4211C58.9091 72.0342 58.4378 70.8709 57.4953 69.9311C56.5527 68.9913 55.3876 68.5231 54 68.5263C52.6091 68.5263 51.4424 68.9962 50.4998 69.936C49.5573 70.8758 49.0876 72.0375 49.0909 73.4211C49.0909 74.8079 49.5622 75.9712 50.5047 76.911C51.4473 77.8508 52.6124 78.3191 54 78.3158ZM49.0909 63.6316H58.9091V39.1579H49.0909V63.6316Z" fill="url(#paint0_linear_1645_167)"/>
<defs>
<linearGradient id="paint0_linear_1645_167" x1="54" y1="55" x2="54" y2="93" gradientUnits="userSpaceOnUse">
<stop stop-color="#F97044"/>
<stop offset="1" stop-color="#FF5E2B"/>
</linearGradient>
</defs>
</svg>
